<svg xmlns="http://www.w3.org/2000/svg" id="Warstwa_1" x="0" y="0" version="1.1" viewBox="0 0 54.9 19.7" xml:space="preserve"><style>.st0{fill:#fff}.st1{fill:#ff474e}</style><path d="M3.2 12.8a.9.9 0 01-.9-.9V7.7c0-.5.4-.9.9-.9s.9.4.9.9v4.2c0 .5-.4.9-.9.9z" class="st0"/><path d="M8.1 16.3h-.5c-.3 0-.6-.3-.6-.6V3.9c0-.3.3-.6.6-.6h.5c.3 0 .6.3.6.6v11.9c.1.3-.2.5-.6.5z" class="st1"/><path d="M12.5 16.4a.9.9 0 01-.9-.9V4.1c0-.5.4-.9.9-.9s.9.4.9.9v11.4c0 .5-.4.9-.9.9zM10.2 19.1a.9.9 0 01-.9-.9V1.4c0-.5.4-.9.9-.9s.9.4.9.9v16.7c0 .6-.4 1-.9 1zM5.6 17.7a.9.9 0 01-.9-.9v-14c0-.5.4-.9.9-.9s.9.4.9.9v14c-.1.5-.5.9-.9.9zM14.8 16.3a.9.9 0 01-.9-.9V4.1c0-.5.4-.9.9-.9s.9.4.9.9v11.3c0 .5-.4.9-.9.9zM17.1 14.7a.9.9 0 01-.9-.9v-8c0-.5.4-.9.9-.9s.9.4.9.9v8.1c0 .4-.4.8-.9.8zM19.4 12.3a.9.9 0 01-.9-.9V8.2c0-.5.4-.9.9-.9s.9.4.9.9v3.2c0 .5-.4.9-.9.9zM21.7 11.9a.9.9 0 01-.9-.9V8.6c0-.5.4-.9.9-.9s.9.4.9.9V11c0 .5-.4.9-.9.9zM24.1 10.9a.9.9 0 01-.9-.9v-.4c0-.5.4-.9.9-.9s.9.4.9.9v.4c-.1.5-.5.9-.9.9zM1.2 10.9H.7c-.3 0-.6-.3-.6-.6v-1c0-.3.3-.6.6-.6h.5c.3 0 .6.3.6.6v1c0 .3-.3.6-.6.6z" class="st0"/><path d="M26.3 6.9c.3-.1.9-.1 1.5-.1.7 0 1.2.1 1.6.3.3.2.6.6.6 1 0 .5-.3 1-.9 1.2.6.1 1.1.6 1.1 1.4 0 .5-.2.9-.5 1.1-.4.3-1 .5-2 .5-.6 0-1 0-1.2-.1V6.9zm1 2.1h.5c.7 0 1.1-.3 1.1-.8s-.4-.7-1-.7c-.3 0-.5 0-.6 0V9zm0 2.5c.1 0 .3 0 .5 0 .6 0 1.2-.2 1.2-.9 0-.6-.6-.9-1.2-.9h-.5v1.8zM34.8 10.3c0 1.5-1 2.1-2 2.1-1.1 0-2-.8-2-2 0-1.3.9-2.1 2-2.1 1.2-.1 2 .8 2 2zm-3 0c0 .8.4 1.3 1 1.3s1-.6 1-1.4c0-.6-.3-1.3-1-1.3-.7.1-1 .7-1 1.4zM39.3 10.3c0 1.5-1 2.1-2 2.1-1.1 0-2-.8-2-2 0-1.3.9-2.1 2-2.1 1.2-.1 2 .8 2 2zm-2.9 0c0 .8.4 1.3 1 1.3s1-.6 1-1.4c0-.6-.3-1.3-1-1.3-.8.1-1 .7-1 1.4zM41.1 10.1c.1-.2.2-.3.3-.5l1-1.3h1.2l-1.5 1.6 1.7 2.3h-1.2l-1.1-1.7-.3.4v1.3h-1V6.5h1v3.6z" class="st1"/><path d="M49 9.9c0-.8-.1-1.7-.1-2.4-.2.6-.4 1.3-.7 2.1l-1 2.7h-.5l-.9-2.6c-.3-.8-.5-1.5-.6-2.1 0 .7-.1 1.6-.1 2.4l-.1 2.3h-.7l.4-5.5h.9l.9 2.6c.2.7.4 1.3.6 1.8.1-.6.3-1.2.6-1.8l1-2.6h.9l.3 5.5h-.7L49 9.9zM51.3 10.4c0 1 .6 1.4 1.3 1.4.5 0 .8-.1 1.1-.2l.1.5c-.3.1-.7.2-1.3.2-1.2 0-1.9-.8-1.9-2s.7-2.1 1.8-2.1c1.3 0 1.6 1.1 1.6 1.8 0 .1 0 .3 0 .3h-2.7zm2.1-.5c0-.5-.2-1.2-1-1.2-.7 0-1 .7-1.1 1.2h2.1z" class="st0"/></svg>